<svg width="97" height="162" viewBox="0 0 97 162" fill="none" xmlns="http://www.w3.org/2000/svg">
<path d="M23.7822 50.3732C29.2723 48.9162 32.8053 47.8999 37.9856 49.7335C39.8883 50.407 41.3676 51.075 42.6672 51.964C43.9633 52.8507 45.1019 53.9712 46.3028 55.5698C48.1021 57.9652 49.0409 60.274 49.3715 62.7043C49.7032 65.1434 49.4268 67.7355 48.7491 70.7046C47.845 74.6658 46.3526 76.6594 43.8694 79.9657L43.7859 80.0771C42.1654 82.2348 40.2743 83.3516 38.3419 84.5571C36.4135 85.7601 34.4579 87.0456 32.9184 89.5396C31.1959 92.3302 30.4283 94.1461 29.7776 97.3744C29.3114 99.6878 29.4949 102.663 29.7818 105.022C29.9262 106.209 30.0991 107.255 30.2357 108.004C30.2396 108.025 30.2441 108.046 30.2479 108.067L5.64285 92.6606C5.61415 92.6079 5.57548 92.5365 5.52862 92.4488C5.41596 92.238 5.25392 91.9299 5.0584 91.544C4.6669 90.7714 4.14152 89.6869 3.60407 88.4407C2.52242 85.9327 1.41869 82.8252 1.23411 80.2891C1.16783 79.3782 1.19503 78.1939 1.24022 77.224C1.26269 76.7419 1.28937 76.3177 1.31047 76.0143C1.32099 75.863 1.32989 75.7416 1.33636 75.6584C1.3396 75.6168 1.3427 75.5844 1.34445 75.5629C1.34533 75.5521 1.34555 75.5439 1.346 75.5385L1.34618 75.5307L1.34886 75.4995L1.34764 75.4682L1.34773 75.4643C1.34762 75.4617 1.34726 75.4571 1.34705 75.4516C1.34663 75.4405 1.34601 75.4236 1.34528 75.4017C1.3438 75.3574 1.34213 75.2915 1.34008 75.2062C1.33595 75.0347 1.33155 74.7845 1.33081 74.4734C1.32934 73.8503 1.34247 72.983 1.40008 72.0085C1.51626 70.0431 1.81146 67.7009 2.50188 66.0278C4.3773 61.4835 7.17523 59.8768 11.2536 56.7647C15.645 53.4138 18.4811 51.7801 23.7822 50.3732Z" fill="#0CB726" stroke="#0CB726"/>
<path d="M58.1415 7.13827C52.474 6.7717 48.8115 6.45848 44.082 9.2607C42.3449 10.2899 41.0226 11.2319 39.9188 12.3558C38.8179 13.4768 37.9173 14.7968 37.047 16.598C35.7431 19.2968 35.2662 21.7436 35.4102 24.1922C35.5547 26.6496 36.3254 29.1393 37.5624 31.9212C39.2128 35.6326 41.0615 37.2991 44.1349 40.0622L44.2385 40.1553C46.2442 41.9587 48.3153 42.6886 50.4436 43.4972C52.5674 44.3042 54.7333 45.1867 56.7243 47.3356C58.9522 49.7402 60.0547 51.3731 61.3152 54.4146C62.2185 56.5942 62.6128 59.5489 62.7858 61.9188C62.8728 63.1116 62.9048 64.1714 62.9151 64.933C62.9154 64.9546 62.915 64.9759 62.9152 64.997L84.0881 45.1148C84.1061 45.0577 84.13 44.9812 84.1588 44.8871C84.2288 44.6584 84.3282 44.3248 84.4458 43.9081C84.681 43.0742 84.9882 41.9081 85.2755 40.5811C85.8535 37.911 86.3374 34.6483 86.0298 32.1243C85.9193 31.2177 85.6643 30.0606 85.4331 29.1178C85.3182 28.6494 85.2104 28.2388 85.1313 27.9453C85.0917 27.7986 85.0595 27.6805 85.0371 27.6001C85.026 27.5602 85.0168 27.5296 85.011 27.5089C85.008 27.4986 85.0062 27.4904 85.0047 27.4853L85.0031 27.4776L84.9944 27.4475L84.9894 27.4156L84.9887 27.4128C84.9883 27.4102 84.9878 27.4056 84.987 27.4002C84.9852 27.3893 84.9826 27.3726 84.9791 27.3509C84.972 27.3071 84.9608 27.2415 84.9463 27.1571C84.9173 26.988 84.8734 26.7416 84.8142 26.4362C84.6956 25.8247 84.5156 24.9766 84.2714 24.0318C83.7787 22.126 83.0379 19.8852 82.0381 18.3774C79.3224 14.2817 76.2675 13.247 71.6662 10.9832C66.7117 8.54567 63.6141 7.49224 58.1415 7.13827Z" fill="#0B86DF" stroke="#0B86DF"/>
<path d="M32.1004 112.302C32.109 112.311 32.1193 112.321 32.1305 112.332C32.1766 112.38 32.2441 112.451 32.3322 112.541C32.5087 112.721 32.766 112.983 33.0879 113.308C33.7316 113.956 34.6364 114.857 35.6805 115.865C37.7652 117.877 40.4204 120.331 42.6691 122.056C44.6603 123.584 46.4525 124.47 48.1483 125.377C49.8439 126.284 51.4649 127.222 53.2035 128.866C56.324 131.818 58.1593 133.585 59.7866 137.451C60.8761 140.04 61.5212 142.268 61.6825 144.496C61.8434 146.72 61.5242 148.975 60.6423 151.619C59.3579 155.47 58.2837 157.923 54.9978 160.027C53.068 161.263 50.0693 161.495 47.4574 161.385C46.1685 161.331 45.005 161.195 44.1635 161.073C43.7432 161.011 43.4035 160.954 43.1704 160.912C43.0542 160.891 42.9645 160.873 42.9042 160.861C42.874 160.855 42.8508 160.851 42.8359 160.848C42.8284 160.846 42.8228 160.845 42.8193 160.844C42.8176 160.844 42.8162 160.843 42.8154 160.843L42.7959 160.839L42.7774 160.837H42.7744C42.772 160.836 42.7678 160.835 42.7627 160.835C42.7525 160.833 42.7366 160.831 42.7159 160.829C42.6742 160.823 42.6112 160.813 42.5305 160.801C42.3692 160.776 42.1346 160.738 41.8438 160.686C41.261 160.581 40.4548 160.42 39.5628 160.19C37.7588 159.727 35.6776 159.007 34.3498 157.977C31.8921 156.07 31.1737 154.275 29.7089 151.343C28.379 148.68 28.0828 146.368 27.9276 143.95C27.7726 141.535 27.7595 138.969 26.9511 135.936C25.4971 130.482 24.4063 127.471 22.1905 122.289C20.9181 119.313 19.0021 115.654 17.4097 112.748C16.6124 111.294 15.8939 110.024 15.375 109.118C15.1156 108.665 14.9058 108.302 14.7609 108.053C14.6886 107.929 14.6321 107.832 14.5938 107.767C14.5748 107.734 14.5602 107.709 14.5504 107.692L14.5359 107.668L14.5349 107.667L14.532 107.662L8.00354 96.8684L32.1004 112.302Z" fill="#EC2F2F" stroke="#EC2F2F"/>
<path d="M61.9144 69.5095C61.9075 69.5203 61.8995 69.5331 61.8902 69.5474C61.8541 69.603 61.8004 69.6845 61.7313 69.7901C61.593 70.0015 61.391 70.3081 61.1377 70.6888C60.6312 71.4501 59.9173 72.5091 59.087 73.7001C57.4292 76.0782 55.2967 79.0001 53.4228 81.1284C51.7635 83.0128 50.1763 84.2293 48.6872 85.4475C47.1982 86.6658 45.788 87.8992 44.399 89.8498C41.9061 93.3505 40.4463 95.4386 39.5947 99.5473C39.0245 102.298 38.82 104.609 39.0911 106.827C39.3618 109.04 40.1104 111.191 41.4853 113.615C43.4875 117.144 45.0138 119.342 48.6429 120.77C50.7745 121.609 53.7617 121.257 56.3032 120.643C57.5576 120.34 58.6735 119.981 59.4755 119.698C59.8758 119.557 60.1973 119.435 60.4178 119.348C60.5281 119.305 60.6133 119.27 60.6702 119.247C60.6983 119.235 60.7197 119.227 60.7337 119.221C60.7405 119.218 60.7461 119.216 60.7494 119.215C60.7509 119.214 60.7523 119.213 60.753 119.213H60.754L60.7714 119.205L60.79 119.199L60.7928 119.198C60.7951 119.197 60.7993 119.196 60.8041 119.195C60.814 119.191 60.829 119.185 60.8487 119.179C60.8885 119.165 60.9479 119.144 61.0245 119.117C61.1781 119.061 61.4014 118.978 61.677 118.871C62.2287 118.655 62.9883 118.34 63.8193 117.943C65.5 117.139 67.4028 116.03 68.5072 114.762C70.5511 112.415 70.9106 110.515 71.7828 107.354C72.5748 104.484 72.4196 102.158 72.1058 99.7547C71.7925 97.3552 71.3107 94.8349 71.5196 91.7033C71.8954 86.0708 72.3851 82.9053 73.5606 77.3921C74.2357 74.226 75.4109 70.264 76.4134 67.1044C76.9153 65.5225 77.3754 64.1374 77.7099 63.1478C77.8771 62.6529 78.013 62.2568 78.1072 61.9842C78.1543 61.8479 78.191 61.7424 78.2159 61.6709L78.2539 61.5635L78.2546 61.5623L78.2563 61.556L82.5816 49.7027L61.9144 69.5095Z" fill="#F6DE3F" stroke="#F6DE3F"/>
</svg>
